<svg xmlns="http://www.w3.org/2000/svg" xmlns:v="https://svgstorm.com"
viewBox = "0 0 256 256"
width="256"
height="256">
<g fill="None" fill-opacity="0.0" stroke="#000000" stroke-opacity="0.00" stroke-width="0.3"><path d="
M 0.00 256.00 
L 256.00 256.00
L 256.00 0.00
L 0.00 0.00
L 0.00 256.00
M 36.00 185.00 
C 35.15 184.23 34.40 184.23 34.00 183.00
C 29.75 169.87 36.78 152.55 34.00 139.00 C 31.22 125.45 33.62 106.53 52.00 112.00
C 50.12 96.96 54.51 83.17 52.00 68.00 C 49.49 52.83 54.43 39.39 71.00 42.00 C 87.57 44.61 99.53 40.25 115.00 42.00 C 130.47 43.75 145.15 39.94 160.00 42.00 C 174.85 44.06 189.81 38.17 204.00 42.00 C 218.19 45.83 210.42 67.43 212.00 79.00 C 213.58 90.57 210.85 110.69 212.00 123.00 C 213.15 135.31 214.02 155.37 196.00 152.00
C 200.73 164.24 208.00 175.57 212.00 188.00
C 196.70 178.11 183.26 163.94 168.00 154.00
C 168.90 167.65 171.61 190.07 154.00 189.00 C 136.39 187.93 120.17 189.67 104.00 189.00 C 87.83 188.33 73.45 187.12 61.92 195.92 C 50.39 204.72 43.20 207.84 32.00 216.00
C 34.74 206.32 42.03 198.36 46.00 189.00
C 42.47 188.86 38.00 188.18 36.00 185.00 Z"/>
</g>
<g fill="None" fill-opacity="0.0" stroke="#FFE9A6" stroke-opacity="0.96" stroke-width="0.3"><path d="
M 34.00 183.00 
C 35.25 183.29 36.78 182.63 38.00 183.00
C 31.00 172.43 38.48 154.14 36.00 142.00 C 33.52 129.86 34.99 110.17 52.00 114.00
C 53.15 126.17 46.14 151.48 64.00 152.00 C 81.87 152.51 97.55 151.73 115.00 152.00 C 132.45 152.27 148.66 151.80 166.00 152.00
C 165.08 162.82 170.88 184.85 155.99 185.99 C 141.11 187.13 125.04 184.76 111.00 186.00 C 96.96 187.24 79.66 182.95 67.92 187.92 C 56.18 192.89 52.11 200.89 41.00 206.00
C 42.99 198.79 49.01 193.23 51.00 186.00
C 46.76 186.24 42.64 186.04 39.00 184.00
C 39.00 186.07 37.03 185.50 36.00 185.00
C 38.00 188.18 42.47 188.86 46.00 189.00
C 42.03 198.36 34.74 206.32 32.00 216.00
C 43.20 207.84 50.39 204.72 61.92 195.92 C 73.45 187.12 87.83 188.33 104.00 189.00 C 120.17 189.67 136.39 187.93 154.00 189.00 C 171.61 190.07 168.90 167.65 168.00 154.00
C 183.26 163.94 196.70 178.11 212.00 188.00
C 208.00 175.57 200.73 164.24 196.00 152.00
C 214.02 155.37 213.15 135.31 212.00 123.00 C 210.85 110.69 213.58 90.57 212.00 79.00 C 210.42 67.43 218.19 45.83 204.00 42.00 C 189.81 38.17 174.85 44.06 160.00 42.00 C 145.15 39.94 130.47 43.75 115.00 42.00 C 99.53 40.25 87.57 44.61 71.00 42.00 C 54.43 39.39 49.49 52.83 52.00 68.00 C 54.51 83.17 50.12 96.96 52.00 112.00
C 33.62 106.53 31.22 125.45 34.00 139.00 C 36.78 152.55 29.75 169.87 34.00 183.00
M 90.00 85.00 
C 103.53 89.11 94.93 112.74 81.33 106.67 C 67.73 100.60 76.38 80.87 90.00 85.00
M 139.00 85.00 
C 152.53 89.11 143.93 112.74 130.33 106.67 C 116.73 100.60 125.38 80.87 139.00 85.00
M 186.00 85.00 
C 199.53 89.11 190.93 112.74 177.33 106.67 C 163.73 100.60 172.38 80.87 186.00 85.00 Z"/>
</g>
<g fill="None" fill-opacity="0.0" stroke="#000000" stroke-opacity="0.00" stroke-width="0.3"><path d="
M 90.00 85.00 
C 76.38 80.87 67.73 100.60 81.33 106.67 C 94.93 112.74 103.53 89.11 90.00 85.00 Z"/>
</g>
<g fill="None" fill-opacity="0.0" stroke="#000000" stroke-opacity="0.00" stroke-width="0.3"><path d="
M 139.00 85.00 
C 125.38 80.87 116.73 100.60 130.33 106.67 C 143.93 112.74 152.53 89.11 139.00 85.00 Z"/>
</g>
<g fill="None" fill-opacity="0.0" stroke="#000000" stroke-opacity="0.00" stroke-width="0.3"><path d="
M 186.00 85.00 
C 172.38 80.87 163.73 100.60 177.33 106.67 C 190.93 112.74 199.53 89.11 186.00 85.00 Z"/>
</g>
<g fill="None" fill-opacity="0.0" stroke="#000000" stroke-opacity="0.00" stroke-width="0.3"><path d="
M 38.00 183.00 
C 38.35 183.11 38.73 183.82 39.00 184.00
C 42.64 186.04 46.76 186.24 51.00 186.00
C 49.01 193.23 42.99 198.79 41.00 206.00
C 52.11 200.89 56.18 192.89 67.92 187.92 C 79.66 182.95 96.96 187.24 111.00 186.00 C 125.04 184.76 141.11 187.13 155.99 185.99 C 170.88 184.85 165.08 162.82 166.00 152.00
C 148.66 151.80 132.45 152.27 115.00 152.00 C 97.55 151.73 81.87 152.51 64.00 152.00 C 46.14 151.48 53.15 126.17 52.00 114.00
C 34.99 110.17 33.52 129.86 36.00 142.00 C 38.48 154.14 31.00 172.43 38.00 183.00 Z"/>
</g>
<g fill="None" fill-opacity="0.0" stroke="#FFEAB0" stroke-opacity="0.62" stroke-width="0.3"><path d="
M 36.00 185.00 
C 37.03 185.50 39.00 186.07 39.00 184.00
C 38.73 183.82 38.35 183.11 38.00 183.00
C 36.78 182.63 35.25 183.29 34.00 183.00
C 34.40 184.23 35.15 184.23 36.00 185.00 Z"/>
</g>
<g fill="#000000" fill-opacity="0.00" stroke="None">
<path d="
M 0.00 256.00 
L 256.00 256.00
L 256.00 0.00
L 0.00 0.00
L 0.00 256.00
M 36.00 185.00 
C 35.15 184.23 34.40 184.23 34.00 183.00
C 29.75 169.87 36.78 152.55 34.00 139.00 C 31.22 125.45 33.62 106.53 52.00 112.00
C 50.12 96.96 54.51 83.17 52.00 68.00 C 49.49 52.83 54.43 39.39 71.00 42.00 C 87.57 44.61 99.53 40.25 115.00 42.00 C 130.47 43.75 145.15 39.94 160.00 42.00 C 174.85 44.06 189.81 38.17 204.00 42.00 C 218.19 45.83 210.42 67.43 212.00 79.00 C 213.58 90.57 210.85 110.69 212.00 123.00 C 213.15 135.31 214.02 155.37 196.00 152.00
C 200.73 164.24 208.00 175.57 212.00 188.00
C 196.70 178.11 183.26 163.94 168.00 154.00
C 168.90 167.65 171.61 190.07 154.00 189.00 C 136.39 187.93 120.17 189.67 104.00 189.00 C 87.83 188.33 73.45 187.12 61.92 195.92 C 50.39 204.72 43.20 207.84 32.00 216.00
C 34.74 206.32 42.03 198.36 46.00 189.00
C 42.47 188.86 38.00 188.18 36.00 185.00 Z"/>
</g>
<g fill="#FFE9A6" fill-opacity="0.96" stroke="None">
<path d="
M 34.00 183.00 
C 35.25 183.29 36.78 182.63 38.00 183.00
C 31.00 172.43 38.48 154.14 36.00 142.00 C 33.52 129.86 34.99 110.17 52.00 114.00
C 53.15 126.17 46.14 151.48 64.00 152.00 C 81.87 152.51 97.55 151.73 115.00 152.00 C 132.45 152.27 148.66 151.80 166.00 152.00
C 165.08 162.82 170.88 184.85 155.99 185.99 C 141.11 187.13 125.04 184.76 111.00 186.00 C 96.96 187.24 79.66 182.95 67.92 187.92 C 56.18 192.89 52.11 200.89 41.00 206.00
C 42.99 198.79 49.01 193.23 51.00 186.00
C 46.76 186.24 42.64 186.04 39.00 184.00
C 39.00 186.07 37.03 185.50 36.00 185.00
C 38.00 188.18 42.47 188.86 46.00 189.00
C 42.03 198.36 34.74 206.32 32.00 216.00
C 43.20 207.84 50.39 204.72 61.92 195.92 C 73.45 187.12 87.83 188.33 104.00 189.00 C 120.17 189.67 136.39 187.93 154.00 189.00 C 171.61 190.07 168.90 167.65 168.00 154.00
C 183.26 163.94 196.70 178.11 212.00 188.00
C 208.00 175.57 200.73 164.24 196.00 152.00
C 214.02 155.37 213.15 135.31 212.00 123.00 C 210.85 110.69 213.58 90.57 212.00 79.00 C 210.42 67.43 218.19 45.83 204.00 42.00 C 189.81 38.17 174.85 44.06 160.00 42.00 C 145.15 39.94 130.47 43.75 115.00 42.00 C 99.53 40.25 87.57 44.61 71.00 42.00 C 54.43 39.39 49.49 52.83 52.00 68.00 C 54.51 83.17 50.12 96.96 52.00 112.00
C 33.62 106.53 31.22 125.45 34.00 139.00 C 36.78 152.55 29.75 169.87 34.00 183.00
M 90.00 85.00 
C 103.53 89.11 94.93 112.74 81.33 106.67 C 67.73 100.60 76.38 80.87 90.00 85.00
M 139.00 85.00 
C 152.53 89.11 143.93 112.74 130.33 106.67 C 116.73 100.60 125.38 80.87 139.00 85.00
M 186.00 85.00 
C 199.53 89.11 190.93 112.74 177.33 106.67 C 163.73 100.60 172.38 80.87 186.00 85.00 Z"/>
</g>
<g fill="#000000" fill-opacity="0.00" stroke="None">
<path d="
M 90.00 85.00 
C 76.38 80.87 67.73 100.60 81.33 106.67 C 94.93 112.74 103.53 89.11 90.00 85.00 Z"/>
</g>
<g fill="#000000" fill-opacity="0.00" stroke="None">
<path d="
M 139.00 85.00 
C 125.38 80.87 116.73 100.60 130.33 106.67 C 143.93 112.74 152.53 89.11 139.00 85.00 Z"/>
</g>
<g fill="#000000" fill-opacity="0.00" stroke="None">
<path d="
M 186.00 85.00 
C 172.38 80.87 163.73 100.60 177.33 106.67 C 190.93 112.74 199.53 89.11 186.00 85.00 Z"/>
</g>
<g fill="#000000" fill-opacity="0.00" stroke="None">
<path d="
M 38.00 183.00 
C 38.35 183.11 38.73 183.82 39.00 184.00
C 42.64 186.04 46.76 186.24 51.00 186.00
C 49.01 193.23 42.99 198.79 41.00 206.00
C 52.11 200.89 56.18 192.89 67.92 187.92 C 79.66 182.95 96.96 187.24 111.00 186.00 C 125.04 184.76 141.11 187.13 155.99 185.99 C 170.88 184.85 165.08 162.82 166.00 152.00
C 148.66 151.80 132.45 152.27 115.00 152.00 C 97.55 151.73 81.87 152.51 64.00 152.00 C 46.14 151.48 53.15 126.17 52.00 114.00
C 34.99 110.17 33.52 129.86 36.00 142.00 C 38.48 154.14 31.00 172.43 38.00 183.00 Z"/>
</g>
<g fill="#FFEAB0" fill-opacity="0.62" stroke="None">
<path d="
M 36.00 185.00 
C 37.03 185.50 39.00 186.07 39.00 184.00
C 38.73 183.82 38.35 183.11 38.00 183.00
C 36.78 182.63 35.25 183.29 34.00 183.00
C 34.40 184.23 35.15 184.23 36.00 185.00 Z"/>
</g>
</svg>